<?xml version="1.0" encoding="UTF-8"?>
<!DOCTYPE svg PUBLIC "-//W3C//DTD SVG 1.1//EN" "http://www.w3.org/Graphics/SVG/1.1/DTD/svg11.dtd">
<!-- Creator: CorelDRAW 2021 (64-Bit) -->
<svg xmlns="http://www.w3.org/2000/svg" xml:space="preserve" width="77px" height="72px" version="1.1" style="shape-rendering:geometricPrecision; text-rendering:geometricPrecision; image-rendering:optimizeQuality; fill-rule:evenodd; clip-rule:evenodd"
viewBox="0 0 77 72.125"
 xmlns:xlink="http://www.w3.org/1999/xlink"
 xmlns:xodm="http://www.corel.com/coreldraw/odm/2003">
 <defs>
  <style type="text/css">
   <![CDATA[
    .fil2 {fill:#FEFEFE}
    .fil1 {fill:#F9B33B}
    .fil0 {fill:#FEFEFE}
   ]]>
  </style>
 </defs>
 <g id="Layer_x0020_1">
  <metadata id="CorelCorpID_0Corel-Layer"/>
  <g id="_2749956730512">
   <path class="fil0" d="M70.322 72.125l-47.037 0 0 -54.367 48.813 0c2.052,0 3.735,-1.053 3.735,-3.1 0,-0.939 -0.179,-3.36 -4.528,-3.36 0,0 -9.951,0 -12.802,0 -2.85,0 -4.071,-1.846 -4.071,-1.846l16.553 0c5.152,0 5.678,2.937 5.678,5.147 0,3.425 -0.993,5.429 -4.967,5.429l-46.131 0 0 49.322 44.757 0c1.727,0 3.296,-0.684 4.278,-1.563 1.781,-1.596 2.215,-3.632 2.226,-3.648 0.006,0 0.044,0.271 0.044,1.037 0,0.195 0.201,2.595 -1.14,4.527 -0.923,1.325 -2.742,2.422 -5.408,2.422l0 0z"/>
   <path class="fil1" d="M7.226 24.756c0,0 -3.86,-1.27 -5.874,-10.993 -1.173,-5.647 -1.352,-13.763 -1.352,-13.763 0,0 12.948,8.182 29.952,8.958 7.937,0.364 17.02,0.054 22.118,1.916 5.901,2.161 7.215,6.195 7.215,6.195 0,0 -3.507,-4.647 -13.567,-5.223 -8.909,-0.51 -17.058,-0.07 -24.045,-1.205 -10.864,-1.77 -18.649,-5.771 -18.649,-5.771 0,0 -0.054,2.736 0.212,6.401 0.244,3.404 1.124,7.551 1.992,10.005 0.847,2.378 1.998,3.48 1.998,3.48l0 0z"/>
   <path class="fil1" d="M22.677 17.802c-7.226,-1.026 -14.957,-5.565 -14.957,-5.565 0,0 0,7.986 2.248,14.002 1.889,5.065 4.967,6.232 4.967,6.232 0,0 -2.611,-2.22 -3.865,-9.088 -0.625,-3.415 -0.69,-6.835 -0.69,-6.835 0,0 8.524,2.834 12.297,1.254z"/>
   <path class="fil1" d="M22.677 27.102c-4.506,-1.054 -7.432,-2.346 -7.432,-2.346 0,0 0.201,5.239 2.6,10.137 0.885,1.802 2.031,3.512 3.698,4.81 -3.171,-4.865 -3.73,-12.074 -3.73,-12.074 0,0 4.088,0.2 4.864,-0.527l0 0z"/>
   <path class="fil2" d="M51.147 33.524l0 1.216 -4.213 0 0 -6.308 1.422 0 0 5.092 2.791 0zm0.912 -5.092l1.417 0 0 6.308 -1.417 0 0 -6.308zm5.749 6.439c-1.02,0 -1.802,-0.288 -2.34,-0.858 -0.537,-0.57 -0.809,-1.379 -0.809,-2.427 0,-0.526 0.087,-0.988 0.25,-1.4 0.163,-0.407 0.386,-0.755 0.673,-1.037 0.283,-0.283 0.625,-0.495 1.021,-0.641 0.391,-0.147 0.82,-0.217 1.281,-0.217 0.266,0 0.511,0.016 0.728,0.06 0.217,0.037 0.407,0.081 0.575,0.135 0.163,0.049 0.299,0.103 0.407,0.158 0.109,0.054 0.19,0.097 0.239,0.13l-0.412 1.145c-0.196,-0.103 -0.418,-0.19 -0.679,-0.265 -0.255,-0.071 -0.548,-0.109 -0.874,-0.109 -0.223,0 -0.435,0.038 -0.646,0.109 -0.206,0.075 -0.391,0.19 -0.554,0.352 -0.163,0.158 -0.288,0.37 -0.386,0.625 -0.097,0.25 -0.146,0.559 -0.146,0.928 0,0.288 0.032,0.559 0.098,0.815 0.059,0.249 0.162,0.466 0.309,0.646 0.141,0.184 0.326,0.331 0.559,0.434 0.228,0.109 0.51,0.157 0.836,0.157 0.206,0 0.391,-0.01 0.554,-0.032 0.163,-0.027 0.31,-0.055 0.44,-0.087 0.125,-0.033 0.239,-0.071 0.336,-0.114 0.098,-0.044 0.185,-0.081 0.261,-0.119l0.391 1.14c-0.196,0.119 -0.478,0.228 -0.847,0.325 -0.364,0.098 -0.782,0.147 -1.265,0.147l0 0zm3.024 -0.131l0 -6.308 4.262 0 0 1.194 -2.839 0 0 1.238 2.519 0 0 1.168 -2.519 0 0 1.52 3.045 0 0 1.188 -4.468 0zm7.981 0.131c-0.44,0 -0.825,-0.066 -1.146,-0.19 -0.32,-0.125 -0.586,-0.294 -0.798,-0.516 -0.206,-0.223 -0.363,-0.489 -0.461,-0.793 -0.103,-0.304 -0.152,-0.646 -0.152,-1.015l0 -3.925 1.422 0 0 3.806c0,0.255 0.027,0.472 0.087,0.651 0.055,0.179 0.136,0.326 0.234,0.44 0.103,0.108 0.222,0.19 0.363,0.239 0.147,0.048 0.299,0.07 0.473,0.07 0.342,0 0.624,-0.103 0.841,-0.315 0.217,-0.212 0.321,-0.575 0.321,-1.086l0 -3.805 1.422 0 0 3.925c0,0.369 -0.054,0.711 -0.157,1.02 -0.104,0.31 -0.261,0.576 -0.473,0.798 -0.211,0.217 -0.483,0.391 -0.809,0.511 -0.325,0.125 -0.716,0.184 -1.167,0.184l0 0.001zm8.187 -1.347l0 1.216 -4.218 0 0 -6.308 1.422 0 0 5.092 2.796 0z"/>
   <path class="fil2" d="M38.508 39.431l0 1.211 -1.905 0 0 5.092 -1.417 0 0 -5.092 -1.906 0 0 -1.211 5.228 0 0 0zm0.907 6.303l0 -6.303 4.262 0 0 1.189 -2.84 0 0 1.238 2.519 0 0 1.167 -2.519 0 0 1.52 3.046 0 0 1.189 -4.468 0zm6.547 -3.154c0,0.309 0.038,0.586 0.114,0.836 0.076,0.25 0.185,0.461 0.326,0.641 0.141,0.179 0.315,0.32 0.521,0.412 0.207,0.098 0.446,0.147 0.712,0.147 0.26,0 0.494,-0.049 0.705,-0.147 0.212,-0.092 0.386,-0.233 0.527,-0.412 0.146,-0.18 0.255,-0.391 0.331,-0.641 0.076,-0.25 0.114,-0.527 0.114,-0.836 0,-0.31 -0.038,-0.592 -0.114,-0.842 -0.076,-0.255 -0.185,-0.467 -0.331,-0.646 -0.141,-0.179 -0.315,-0.32 -0.527,-0.418 -0.211,-0.092 -0.445,-0.141 -0.705,-0.141 -0.266,0 -0.505,0.049 -0.712,0.147 -0.206,0.103 -0.38,0.238 -0.521,0.418 -0.141,0.179 -0.25,0.396 -0.326,0.646 -0.076,0.255 -0.114,0.532 -0.114,0.836zm4.816 0c0,0.537 -0.082,1.015 -0.244,1.422 -0.163,0.413 -0.381,0.755 -0.657,1.032 -0.283,0.271 -0.614,0.483 -0.999,0.619 -0.386,0.141 -0.798,0.211 -1.243,0.211 -0.429,0 -0.837,-0.07 -1.222,-0.211 -0.38,-0.136 -0.711,-0.348 -0.999,-0.619 -0.282,-0.277 -0.51,-0.619 -0.673,-1.032 -0.163,-0.407 -0.244,-0.885 -0.244,-1.422 0,-0.543 0.081,-1.015 0.255,-1.428 0.168,-0.407 0.396,-0.749 0.684,-1.032 0.288,-0.276 0.624,-0.488 1.004,-0.629 0.38,-0.136 0.777,-0.207 1.195,-0.207 0.429,0 0.836,0.071 1.221,0.207 0.38,0.141 0.717,0.353 0.999,0.629 0.288,0.283 0.51,0.625 0.673,1.032 0.163,0.413 0.25,0.885 0.25,1.428l0 0zm3.029 -3.225c0.945,0 1.672,0.168 2.172,0.505 0.505,0.336 0.76,0.863 0.76,1.574 0,0.44 -0.104,0.798 -0.31,1.075 -0.201,0.277 -0.494,0.495 -0.874,0.652 0.125,0.157 0.261,0.336 0.396,0.543 0.142,0.201 0.283,0.413 0.418,0.635 0.136,0.223 0.266,0.451 0.397,0.695 0.125,0.239 0.244,0.472 0.353,0.7l-1.586 0c-0.119,-0.206 -0.233,-0.412 -0.353,-0.624 -0.119,-0.212 -0.239,-0.418 -0.364,-0.619 -0.124,-0.201 -0.249,-0.391 -0.374,-0.57 -0.12,-0.179 -0.245,-0.342 -0.364,-0.488l-0.7 0 0 2.301 -1.423 0 0 -6.216c0.31,-0.06 0.63,-0.103 0.961,-0.125 0.331,-0.027 0.63,-0.038 0.89,-0.038l0.001 0zm0.082 1.211c-0.104,0 -0.196,0.005 -0.277,0.011 -0.082,0.005 -0.163,0.01 -0.234,0.016l0 1.71 0.402 0c0.532,0 0.917,-0.065 1.146,-0.196 0.228,-0.135 0.347,-0.364 0.347,-0.684 0,-0.309 -0.119,-0.532 -0.353,-0.662 -0.233,-0.131 -0.575,-0.196 -1.031,-0.196l0 0.001zm4.142 5.168l0 -6.303 4.256 0 0 1.189 -2.839 0 0 1.238 2.524 0 0 1.167 -2.524 0 0 1.52 3.051 0 0 1.189 -4.468 0zm10.19 -6.303l0 1.211 -1.9 0 0 5.092 -1.422 0 0 -5.092 -1.9 0 0 -1.211 5.222 0 0 0zm0.912 0l1.423 0 0 6.303 -1.423 0 0 -6.303zm5.755 6.434c-1.026,0 -1.808,-0.288 -2.345,-0.858 -0.538,-0.57 -0.809,-1.379 -0.809,-2.427 0,-0.521 0.087,-0.988 0.25,-1.401 0.163,-0.407 0.385,-0.754 0.673,-1.037 0.282,-0.282 0.624,-0.494 1.02,-0.64 0.391,-0.147 0.82,-0.217 1.282,-0.217 0.266,0 0.51,0.021 0.727,0.059 0.217,0.038 0.413,0.082 0.576,0.136 0.163,0.049 0.298,0.103 0.407,0.157 0.108,0.055 0.19,0.098 0.239,0.131l-0.413 1.145c-0.19,-0.103 -0.418,-0.19 -0.679,-0.266 -0.255,-0.07 -0.548,-0.108 -0.874,-0.108 -0.222,0 -0.434,0.038 -0.646,0.108 -0.206,0.076 -0.391,0.19 -0.554,0.353 -0.157,0.163 -0.287,0.369 -0.385,0.625 -0.098,0.255 -0.147,0.564 -0.147,0.928 0,0.288 0.033,0.559 0.098,0.814 0.06,0.25 0.163,0.467 0.309,0.652 0.142,0.179 0.326,0.326 0.56,0.429 0.228,0.108 0.51,0.163 0.836,0.163 0.206,0 0.391,-0.017 0.554,-0.038 0.162,-0.027 0.309,-0.055 0.439,-0.087 0.125,-0.033 0.239,-0.071 0.337,-0.114 0.097,-0.044 0.184,-0.082 0.26,-0.12l0.397 1.14c-0.201,0.12 -0.484,0.228 -0.847,0.326 -0.364,0.098 -0.788,0.147 -1.265,0.147l0 0z"/>
   <path class="fil2" d="M35.218 56.733c-0.402,-0.722 -0.847,-1.438 -1.319,-2.139 -0.472,-0.706 -0.977,-1.368 -1.509,-1.992l0 4.131 -1.401 0 0 -6.308 1.157 0c0.2,0.201 0.418,0.445 0.662,0.738 0.244,0.288 0.489,0.603 0.744,0.934 0.25,0.326 0.499,0.673 0.749,1.026 0.25,0.353 0.483,0.695 0.7,1.026l0 -3.724 1.412 0 0 6.309 -1.195 0 0 -0.001zm6.884 0c-0.07,-0.222 -0.146,-0.445 -0.228,-0.678 -0.081,-0.228 -0.163,-0.462 -0.244,-0.69l-2.46 0c-0.081,0.234 -0.163,0.462 -0.238,0.695 -0.082,0.228 -0.158,0.451 -0.228,0.674l-1.472 0c0.239,-0.679 0.462,-1.309 0.674,-1.884 0.217,-0.576 0.423,-1.124 0.629,-1.629 0.201,-0.51 0.402,-0.994 0.603,-1.455 0.196,-0.456 0.402,-0.907 0.613,-1.341l1.347 0c0.206,0.434 0.413,0.885 0.613,1.341 0.201,0.461 0.402,0.945 0.608,1.455 0.207,0.505 0.413,1.053 0.625,1.629 0.217,0.575 0.44,1.205 0.678,1.884l-1.52 0 0 -0.001zm-1.71 -4.88c-0.027,0.092 -0.076,0.217 -0.136,0.374 -0.059,0.158 -0.13,0.337 -0.211,0.549 -0.076,0.206 -0.163,0.434 -0.261,0.678 -0.092,0.25 -0.19,0.51 -0.293,0.782l1.802 0c-0.092,-0.272 -0.184,-0.532 -0.277,-0.782 -0.092,-0.25 -0.179,-0.478 -0.26,-0.684 -0.082,-0.206 -0.152,-0.391 -0.212,-0.548 -0.06,-0.158 -0.114,-0.277 -0.152,-0.369zm7.97 -1.428l0 1.211 -1.9 0 0 5.097 -1.423 0 0 -5.097 -1.9 0 0 -1.211 5.223 0 0 0zm-3.154 6.781l1.069 0c0.016,0.065 0.022,0.135 0.027,0.201 0,0.065 0,0.108 0,0.135 0,0.228 -0.033,0.424 -0.108,0.576 -0.071,0.152 -0.169,0.271 -0.288,0.364 -0.125,0.086 -0.261,0.152 -0.418,0.195 -0.152,0.038 -0.315,0.06 -0.478,0.06 -0.087,0 -0.179,-0.011 -0.271,-0.022 -0.093,-0.011 -0.158,-0.022 -0.19,-0.033l0 -0.765c0.092,0 0.179,-0.005 0.26,-0.022 0.082,-0.011 0.152,-0.038 0.206,-0.076 0.06,-0.038 0.104,-0.097 0.136,-0.174 0.033,-0.076 0.055,-0.179 0.055,-0.315l0 -0.125 0 0.001zm4.066 -6.781l1.417 0 0 6.309 -1.417 0 0 -6.309zm4.066 3.149c0,0.309 0.038,0.586 0.114,0.836 0.076,0.25 0.185,0.461 0.332,0.641 0.141,0.179 0.315,0.32 0.521,0.418 0.206,0.097 0.445,0.146 0.711,0.146 0.261,0 0.494,-0.049 0.706,-0.146 0.206,-0.098 0.385,-0.239 0.526,-0.418 0.142,-0.18 0.25,-0.391 0.326,-0.641 0.076,-0.25 0.114,-0.527 0.114,-0.836 0,-0.31 -0.038,-0.592 -0.114,-0.842 -0.076,-0.249 -0.184,-0.466 -0.326,-0.646 -0.141,-0.179 -0.32,-0.315 -0.526,-0.412 -0.212,-0.098 -0.445,-0.147 -0.706,-0.147 -0.266,0 -0.505,0.049 -0.711,0.147 -0.206,0.103 -0.38,0.244 -0.521,0.423 -0.147,0.179 -0.256,0.391 -0.332,0.646 -0.076,0.25 -0.114,0.527 -0.114,0.831zm4.816 0c0,0.537 -0.081,1.015 -0.239,1.422 -0.163,0.413 -0.38,0.755 -0.662,1.032 -0.277,0.276 -0.608,0.483 -0.994,0.624 -0.385,0.136 -0.803,0.206 -1.243,0.206 -0.434,0 -0.836,-0.07 -1.222,-0.206 -0.38,-0.141 -0.716,-0.347 -0.998,-0.624 -0.288,-0.277 -0.511,-0.619 -0.674,-1.032 -0.168,-0.407 -0.249,-0.885 -0.249,-1.422 0,-0.538 0.086,-1.016 0.255,-1.423 0.174,-0.412 0.402,-0.754 0.689,-1.037 0.288,-0.276 0.619,-0.488 0.999,-0.624 0.38,-0.141 0.782,-0.212 1.2,-0.212 0.429,0 0.836,0.071 1.216,0.212 0.386,0.136 0.717,0.347 1.005,0.624 0.282,0.283 0.51,0.625 0.673,1.037 0.163,0.407 0.244,0.885 0.244,1.423l0 0zm5.418 3.159c-0.407,-0.722 -0.847,-1.438 -1.319,-2.139 -0.478,-0.706 -0.977,-1.368 -1.515,-1.992l0 4.131 -1.4 0 0 -6.308 1.156 0c0.201,0.201 0.424,0.445 0.662,0.738 0.245,0.288 0.494,0.603 0.744,0.934 0.25,0.326 0.505,0.673 0.749,1.026 0.25,0.353 0.484,0.695 0.701,1.026l0 -3.724 1.411 0 0 6.309 -1.189 0 0 -0.001zm6.879 0c-0.071,-0.222 -0.147,-0.445 -0.228,-0.678 -0.082,-0.228 -0.158,-0.462 -0.239,-0.69l-2.465 0c-0.076,0.234 -0.157,0.462 -0.239,0.695 -0.081,0.228 -0.152,0.451 -0.222,0.674l-1.477 0c0.239,-0.679 0.461,-1.309 0.678,-1.884 0.212,-0.576 0.418,-1.124 0.625,-1.629 0.201,-0.51 0.402,-0.994 0.603,-1.455 0.195,-0.456 0.401,-0.907 0.613,-1.341l1.347 0c0.206,0.434 0.412,0.885 0.613,1.341 0.201,0.461 0.402,0.945 0.608,1.455 0.206,0.505 0.413,1.053 0.624,1.629 0.218,0.575 0.44,1.205 0.679,1.884l-1.52 0 0 -0.001zm-1.705 -4.88c-0.033,0.092 -0.076,0.217 -0.141,0.374 -0.06,0.158 -0.13,0.337 -0.206,0.549 -0.076,0.206 -0.169,0.434 -0.261,0.678 -0.098,0.25 -0.196,0.51 -0.299,0.782l1.808 0c-0.097,-0.272 -0.19,-0.532 -0.282,-0.782 -0.087,-0.25 -0.174,-0.478 -0.255,-0.684 -0.082,-0.206 -0.152,-0.391 -0.217,-0.548 -0.06,-0.158 -0.109,-0.277 -0.147,-0.369l0 0zm8.252 3.659l0 1.221 -4.218 0 0 -6.308 1.422 0 0 5.087 2.796 0 0 0z"/>
  </g>
 </g>
</svg>
