<svg xmlns="http://www.w3.org/2000/svg" xmlns:xlink="http://www.w3.org/1999/xlink" x="0px" y="0px" viewBox="0 0 196.24 129.98" xml:space="preserve">
<g id="Layer_2">
	<rect display="none" fill="#273B91" width="196.24" height="129.98"></rect>
</g>
<g id="Layer_1">
	<path fill-rule="evenodd" clip-rule="evenodd" fill="#273B91" d="M99.41,106.73c29.24-4.83,58.47-9.67,87.71-14.5   c3.04,0.97,6.08,1.93,9.12,2.9c-0.14,0.37-0.41,0.53-0.55,0.9c-5.85,2.28-21.29,4.7-23.58,5.28c-2.1,0.46-12.82,3.12-16.64,3.76   c-3.59,2.44-5.55,4.05-7.73,4.59c-3.71,0.7-5.44-0.46-8.81,0.38c-14.57,7.16-36.39,13.98-36.39,13.98s-17.81,6.36-19.39,5.94   C51.06,121.42,29.4,107.23,0,92.09c2.03-0.6,4.99-1.62,7.01-2.21c1.34-1.43,2.67-2.85,4.01-4.28   C40.48,92.64,69.95,99.68,99.41,106.73z"></path>
	<path fill-rule="evenodd" clip-rule="evenodd" fill="#273B91" d="M49.64,72.36c0.99-3.5,2.35-7.25,9.77-10.47   c0.54-0.45,1.15-2.01,0.21-2.81c-1.46-0.93-0.6-2.99,1.17-3.37c5.97,0.13,10.53,0.6,16.5,0.72c1.59,0.75,1.63,2.05,0.28,3.32   c-0.92,0.31-0.94,1.69-0.41,2.07c2.49,1.36,4.3,2.72,5.04,4.07c-7.54,1.33-14.44,4.14-19.22,7.77   C59.1,72.18,54.82,71.75,49.64,72.36z"></path>
	<path fill="none" stroke="#273B91" stroke-width="0.5" stroke-linejoin="round" stroke-miterlimit="22.9256" d="M49.64,72.36   c0.99-3.5,2.35-7.25,9.77-10.47c0.54-0.45,1.15-2.01,0.21-2.81c-1.46-0.93-0.6-2.99,1.17-3.37c5.97,0.13,10.53,0.6,16.5,0.72   c1.59,0.75,1.63,2.05,0.28,3.32c-0.92,0.31-0.94,1.69-0.41,2.07c2.49,1.36,4.3,2.72,5.04,4.07c-7.54,1.33-14.44,4.14-19.22,7.77   C59.1,72.18,54.82,71.75,49.64,72.36z"></path>
	<path fill-rule="evenodd" clip-rule="evenodd" fill="#FFFFFF" d="M71.08,56.15l-5.04-0.17c1.62-8.75,3.65-17.28,7.11-23.45   c0.46,0.64,0.92,1.29,1.38,1.93c4.37-8.56,10.27-13.77,16.85-17.54c9.16-5.51,23.58-10.7,40.47-16.57   c4.56,0.64,8.62,0.84,13.18,1.49c-10.62,4.3-16.56,8.07-22.92,11.63c-0.57,1.35-0.71,1.51-0.35,1.93   c-8.67,2.07-10.28,3.36-13.54,4.83c1.98,0.28,3.96,0.55,5.94,0.83c-7.32,5.34-18.51,14.27-23.34,14.92   C89.77,40.87,78.63,46.3,71.08,56.15"></path>
	<path fill="#273B91" d="M66.46,55.64l4.45,0.15c3.68-4.76,8.17-8.48,11.94-11.6c3.95-3.28,7.11-5.89,7.63-8.28h0   c0.03-0.14,0.15-0.26,0.3-0.28c3.94-0.52,12.34-6.79,19.25-11.94l0,0l0,0c1.12-0.83,2.19-1.63,3.23-2.4l-5.07-0.71l-0.01,0   c-0.12-0.02-0.22-0.09-0.27-0.2c-0.08-0.18,0-0.39,0.18-0.47c0.6-0.27,1.16-0.54,1.71-0.81c2.35-1.15,4.7-2.29,11.42-3.93   c-0.08-0.31,0.06-0.65,0.39-1.42l0.18-0.41c0.03-0.07,0.08-0.13,0.15-0.17c1.05-0.59,2.15-1.22,3.26-1.85   c5.08-2.9,10.54-6.02,18.68-9.4c-1.8-0.22-3.54-0.46-5.32-0.61c-2.18-0.18-4.12-0.45-6.6-0.64c-8.41,2.93-16.29,5.74-23.12,8.45   c-6.83,2.71-12.7,5.37-17.26,8.11l-0.03,0.02c-3.26,1.87-6.36,4.1-9.18,6.92c-2.82,2.82-5.36,6.23-7.53,10.48l0,0   c-0.03,0.05-0.06,0.09-0.11,0.13c-0.16,0.11-0.38,0.08-0.49-0.08l-1.05-1.47c-1.59,2.95-2.87,6.43-3.95,10.19   C68.14,47.25,67.25,51.42,66.46,55.64 M71.07,56.51L71.07,56.51l-5.04-0.17c-0.19-0.01-0.35-0.17-0.34-0.36   c0-0.02,0-0.04,0.01-0.06c0.81-4.39,1.73-8.72,2.87-12.72c1.15-4.02,2.53-7.72,4.28-10.83c0.1-0.17,0.31-0.23,0.48-0.14   c0.05,0.03,0.09,0.07,0.12,0.11l1.04,1.45c2.14-4.07,4.64-7.38,7.4-10.14c2.87-2.87,6.02-5.13,9.33-7.03l0.01-0.01   c4.59-2.76,10.5-5.44,17.37-8.16c6.87-2.72,14.7-5.49,23.15-8.43C131.79,0,131.85,0,131.9,0v0c2.26,0.32,4.47,0.5,6.68,0.69   c2.05,0.29,4.38,0.57,6.67,0.9c0.19,0.03,0.37,0,0.34,0.2c-0.02,0.13-0.1,0.23-0.22,0.28l0,0c-8.78,3.56-14.51,6.83-19.83,9.87   c-1.05,0.6-2.08,1.19-3.16,1.8l-0.13,0.31c-0.34,0.8-0.4,0.94-0.23,1.15c0.13,0.15,0.11,0.37-0.04,0.5   c-0.05,0.04-0.11,0.07-0.17,0.08c-6.98,1.67-9.35,2.83-11.72,3.99l-0.65,0.32l4.76,0.66c0.19,0.03,0.33,0.21,0.3,0.4   c-0.01,0.11-0.08,0.19-0.16,0.25c-1.18,0.86-2.52,1.86-3.91,2.9l0,0c-6.84,5.1-15.13,11.28-19.34,12.03   c-0.71,2.55-3.88,5.17-7.81,8.44c-3.79,3.14-8.3,6.87-11.94,11.63C71.29,56.46,71.18,56.51,71.07,56.51z"></path>
	<path fill-rule="evenodd" clip-rule="evenodd" fill="#FFFFFF" d="M37.04,75.01c-9.99,4.74-14.11,7.27-24.93,10.98   c11.19,3.03,22.35,9.96,35.1,15.72c13.22,5.97,33.29,15.1,41.35,16.6c12.72-4.07,25.82-21.44,55.94-14.57   C117.67,91.72,89.82,83.5,62.38,73.56C57.1,71.48,43.76,71.58,37.04,75.01"></path>
	<path fill="#273B91" d="M37.17,75.33c-0.17,0.07-0.37,0-0.45-0.17 M30.51,77.78c1.92-0.94,4.01-1.97,6.36-3.08l0.01,0   c3.21-1.63,7.88-2.52,12.49-2.78c5.19-0.3,10.3,0.2,13.14,1.32c8.49,3.08,17.05,6,25.6,8.92c19.01,6.49,38,12.97,56.52,21.27   c0.16,0.06,0.25,0.23,0.21,0.41c-0.04,0.19-0.23,0.31-0.42,0.27c-21.71-4.95-34.53,2.78-44.77,8.94   c-3.91,2.36-7.45,4.49-10.98,5.62c-0.06,0.02-0.12,0.02-0.18,0.01c-7.9-1.47-27.21-10.2-40.43-16.17l-1-0.45   c-4.26-1.93-8.36-3.99-12.33-5.99c-7.88-3.97-15.3-7.7-22.71-9.71c-0.11-0.03-0.2-0.11-0.24-0.23c-0.06-0.18,0.04-0.39,0.22-0.45   C20.19,82.84,24.53,80.71,30.51,77.78z M37.17,75.33c-2.45,1.16-4.48,2.16-6.35,3.08c-5.74,2.82-9.98,4.9-17.53,7.54   c7.12,2.08,14.23,5.66,21.76,9.46c3.96,1.99,8.04,4.05,12.31,5.98l1,0.45c13.15,5.94,32.32,14.61,40.18,16.11   c3.42-1.11,6.9-3.21,10.75-5.53c9.83-5.92,22.02-13.27,42.08-9.68c-17.53-7.66-35.5-13.79-53.48-19.93   c-8.54-2.91-17.09-5.83-25.62-8.92l-0.01,0v0c-2.75-1.08-7.75-1.56-12.85-1.27c-4.52,0.26-9.09,1.12-12.21,2.71L37.17,75.33z"></path>
	<path fill-rule="evenodd" clip-rule="evenodd" fill="#FFFFFF" d="M62.93,73.59c25.9,9.6,53.54,17.71,81.63,30.11   c4.94-6.25,10.13-9.81,17.02-11.73c9.58-2.09,17.68,0.32,26.64-0.13c-11.43-3.28-49.65-13-53.61-15.35   c-8-3.21-17.49-7.5-32.3-10.84c-6.81-0.83-12.36-1.17-20.04,0.21C73.98,67.46,67.9,70.23,62.93,73.59"></path>
	<path fill="#273B91" d="M89.41,83.3c-9.02-3.1-17.89-6.15-26.59-9.37l0,0l0,0c-0.07-0.02-0.13-0.07-0.17-0.13   c-0.11-0.16-0.07-0.38,0.1-0.49c2.5-1.69,5.29-3.23,8.49-4.56c3.2-1.32,6.81-2.43,10.98-3.23v0l0,0c3.86-0.69,7.19-0.95,10.41-0.94   c3.22,0.02,6.33,0.31,9.74,0.73v0l0.03,0.01c12.88,2.91,21.74,6.53,29.1,9.54c1.05,0.43,2.08,0.85,3.25,1.32   c0.02,0.01,0.04,0.02,0.06,0.03c2.77,1.65,22.89,7.04,38.38,11.19c6.31,1.69,11.86,3.18,15.14,4.12v0   c0.14,0.04,0.25,0.17,0.26,0.32c0.01,0.19-0.14,0.36-0.34,0.37c-3.5,0.17-6.86-0.08-10.22-0.34c-5.27-0.4-10.55-0.81-16.36,0.46   c-3.4,0.95-6.38,2.3-9.12,4.19c-2.74,1.89-5.24,4.31-7.68,7.39c-0.09,0.14-0.28,0.2-0.44,0.13C125.76,95.79,107.3,89.44,89.41,83.3    M63.71,73.5c8.46,3.12,17.12,6.1,25.93,9.13c17.82,6.12,36.21,12.45,54.82,20.64c2.44-3.05,4.94-5.46,7.68-7.35   c2.81-1.94,5.86-3.32,9.35-4.29l0.02,0v0c5.92-1.29,11.25-0.88,16.57-0.47c2.58,0.2,5.16,0.39,7.78,0.39   c-3.31-0.92-7.84-2.13-12.86-3.48c-15.49-4.15-35.59-9.54-38.53-11.25c-0.94-0.38-2.07-0.84-3.24-1.32   c-7.32-2.99-16.14-6.6-28.96-9.49c-3.39-0.41-6.47-0.71-9.64-0.72c-3.18-0.02-6.47,0.24-10.28,0.93v0   c-4.12,0.8-7.69,1.89-10.84,3.19C68.59,70.59,66.03,71.98,63.71,73.5z"></path>
	<path fill-rule="evenodd" clip-rule="evenodd" fill="#FFFFFF" d="M49.67,102.8c-14.15-5.72-20.75-11.79-37.42-16.82   c-0.24,1.44-1.45,2.91-2.8,4.35c-0.83,0.17-1.67,0.91-2.68,2.01c12.85,5.62,23.08,8.92,38.56,16.85   c11.12,4.56,20.34,10.01,33.35,13.67c3.6,0.51,7.2,1.01,10.79,1.52c18.08-6.65,36.12-13.36,54.94-18.51   c16.14-4.69,31.08-7.76,44.72-10.24c-0.13-1.53-1.3-2.32-0.9-3.87c-4.3,1.01-19.25-2.4-28.35,0.71   c-6.81,2.34-11.05,5.82-15.43,11.22c-10.54-2.21-19-1.9-26.42,0.31c-12.56,3.24-18.42,10.12-29.32,14.33   C74.64,114.68,60.03,107.33,49.67,102.8"></path>
	<path fill="#273B91" d="M49.54,103.13L49.54,103.13c-0.18-0.08-0.26-0.29-0.19-0.47 M49.8,102.47L49.8,102.47 M35.17,95.45   c4.42,2.34,8.91,4.71,14.63,7.02l0.01,0c2.16,0.94,4.47,2,6.93,3.11c9.41,4.28,20.85,9.48,31.97,12.38   c4.57-1.78,8.26-4.03,11.94-6.28c5.03-3.07,10.04-6.14,17.29-8.01l0.01,0c3.73-1.11,7.73-1.75,12.13-1.83   c4.33-0.08,9.04,0.39,14.25,1.47c2.17-2.65,4.31-4.84,6.74-6.65c2.49-1.86,5.28-3.33,8.72-4.51v0l0,0   c5.78-1.97,13.83-1.35,20.11-0.87c3.67,0.28,6.73,0.52,8.28,0.15v0c0.05-0.01,0.11-0.01,0.17,0c0.19,0.05,0.3,0.24,0.25,0.43   c-0.2,0.78,0.07,1.37,0.36,1.99c0.24,0.52,0.49,1.06,0.55,1.75h0c0.02,0.18-0.11,0.35-0.29,0.38c-6.82,1.24-13.96,2.62-21.41,4.29   c-7.45,1.66-15.21,3.6-23.27,5.94v0l-0.01,0c-17.98,4.91-35.26,11.27-52.54,17.62l-2.38,0.87v0c-0.05,0.02-0.11,0.03-0.17,0.02   l-10.8-1.52l-0.05-0.01c-8.7-2.45-15.71-5.69-22.71-8.94c-3.49-1.62-6.99-3.24-10.68-4.75v0l-0.03-0.01   c-10.29-5.27-18.27-8.5-26.26-11.73l0,0c-4-1.62-7.99-3.23-12.28-5.11l0,0c-0.04-0.02-0.07-0.04-0.1-0.06   c-0.14-0.13-0.15-0.36-0.02-0.5c0.52-0.56,1-1.03,1.45-1.39c0.44-0.35,0.87-0.59,1.31-0.7c0.63-0.68,1.23-1.37,1.71-2.05   c0.47-0.68,0.81-1.36,0.93-2.02c0-0.02,0.01-0.03,0.01-0.05c0.06-0.19,0.25-0.29,0.44-0.24C22.3,88.65,28.66,92.01,35.17,95.45z    M49.54,103.13c-5.75-2.33-10.26-4.71-14.69-7.05c-6.4-3.38-12.66-6.69-22.33-9.64c-0.18,0.64-0.52,1.29-0.96,1.92   c-0.51,0.74-1.16,1.48-1.85,2.21c-0.05,0.06-0.12,0.09-0.19,0.1v0c-0.36,0.07-0.73,0.28-1.12,0.59c-0.32,0.25-0.66,0.57-1.03,0.95   c4.11,1.79,7.96,3.34,11.81,4.9l0,0l0,0c7.98,3.23,15.96,6.46,26.29,11.75c3.72,1.52,7.21,3.14,10.7,4.76   c6.97,3.23,13.94,6.46,22.58,8.89l10.68,1.5l2.29-0.84c17.28-6.36,34.57-12.71,52.59-17.64v0c8.07-2.34,15.85-4.29,23.32-5.95   c7.34-1.64,14.38-3.01,21.1-4.23c-0.09-0.44-0.27-0.83-0.44-1.2c-0.28-0.61-0.55-1.19-0.49-1.94c-1.74,0.25-4.6,0.03-7.98-0.23   c-6.21-0.48-14.19-1.09-19.83,0.84v0c-3.37,1.16-6.1,2.6-8.53,4.41c-2.44,1.82-4.57,4.02-6.75,6.7c-0.09,0.11-0.22,0.15-0.35,0.12   v0c-5.25-1.1-9.97-1.57-14.3-1.5c-4.32,0.08-8.26,0.7-11.94,1.8l-0.03,0.01c-7.14,1.84-12.11,4.88-17.1,7.93   c-3.74,2.28-7.48,4.57-12.16,6.38c-0.07,0.03-0.15,0.03-0.22,0.01c-11.21-2.91-22.73-8.15-32.19-12.45   C53.98,105.11,51.65,104.05,49.54,103.13z"></path>
	<path fill="#273B91" d="M69.48,53.51c3.59-5.81,7.53-11.37,11.98-16.55c4.45-5.19,9.41-10.01,15.04-14.34l0.02-0.01   c8.77-5.78,16.44-10.2,23.38-13.7c6.94-3.5,13.14-6.07,18.96-8.16l0.24,0.66c-5.79,2.08-11.96,4.65-18.88,8.13   c-6.91,3.48-14.56,7.89-23.29,13.64c-5.59,4.3-10.51,9.09-14.93,14.24c-4.42,5.16-8.34,10.69-11.92,16.46L69.48,53.51z"></path>
	<path fill="#273B91" d="M11.41,87.68c5.18,0.74,9.25,3.02,13.35,5.32l0,0l0.93,0.52l-0.34,0.62l-0.93-0.52h0   c-4.05-2.27-8.06-4.52-13.11-5.24L11.41,87.68z"></path>
	<path fill="#273B91" d="M10.68,88.58c2.18,0.53,4.18,1.22,6.06,2.02c1.88,0.8,3.65,1.72,5.36,2.71l-0.35,0.61   c-1.68-0.98-3.43-1.88-5.28-2.67c-1.85-0.79-3.82-1.47-5.95-1.98L10.68,88.58z"></path>
	<path fill="#273B91" d="M9.67,89.76c1.94,0.61,3.65,1.27,5.21,1.95c1.55,0.67,2.98,1.37,4.37,2.08l-0.32,0.63   c-1.36-0.7-2.77-1.39-4.33-2.06c-1.55-0.67-3.23-1.31-5.15-1.92L9.67,89.76z"></path>
	<path fill="#273B91" d="M52.02,107.31c6.41,2.41,10.29,4.31,13.92,6.1c4.07,2,7.84,3.86,14.59,6.12l-0.22,0.67   c-6.79-2.27-10.58-4.14-14.67-6.15c-3.62-1.78-7.47-3.68-13.86-6.07L52.02,107.31z"></path>
	<path fill="#273B91" d="M40.56,104.62c5.83,2.29,10.2,4.5,14.08,6.47c4.76,2.41,8.79,4.45,13.92,5.81l-0.18,0.68   c-5.2-1.38-9.26-3.44-14.06-5.87c-3.86-1.96-8.21-4.16-14.02-6.44L40.56,104.62z"></path>
	<path fill="#273B91" d="M88.89,118.55c-0.17,0.44-0.24,1-0.31,1.6c-0.15,1.31-0.31,2.76-1.67,3.8l-0.43-0.56   c1.12-0.86,1.27-2.15,1.4-3.32c0.07-0.64,0.14-1.25,0.35-1.78L88.89,118.55z"></path>
	<path fill="#273B91" d="M92.29,120.81c-0.63,0.26-1.31,0.48-1.99,0.7c-0.67,0.22-1.33,0.43-1.94,0.68l-0.27-0.66   c0.63-0.26,1.31-0.48,1.99-0.7c0.67-0.22,1.33-0.43,1.95-0.68L92.29,120.81z"></path>
	<path fill="#273B91" d="M91.06,119.38c-0.41,0.09-0.82,0.25-1.23,0.45c-0.42,0.21-0.85,0.47-1.28,0.74l-0.38-0.59   c0.45-0.29,0.9-0.56,1.35-0.78c0.46-0.23,0.93-0.41,1.39-0.51L91.06,119.38z"></path>
	<path fill="#273B91" d="M99.48,117.93c7.01-1.42,11.57-3.3,16.22-5.22c4.54-1.87,9.16-3.78,16.23-5.34l0.15,0.69   c-7,1.54-11.6,3.44-16.12,5.31c-4.68,1.93-9.27,3.83-16.35,5.26L99.48,117.93z"></path>
	<path fill="#273B91" d="M97.38,115.8c4.06-1.2,7.55-3.13,10.75-4.91c2.73-1.51,5.25-2.91,7.76-3.66l0.2,0.68   c-2.44,0.73-4.93,2.1-7.62,3.6c-3.23,1.79-6.76,3.75-10.89,4.97L97.38,115.8z"></path>
	<path fill="#273B91" d="M115.52,109.83c1.47-0.91,3.04-1.66,4.7-2.24c1.66-0.58,3.41-1,5.25-1.26l0.1,0.7   c-1.79,0.25-3.5,0.66-5.11,1.23c-1.61,0.56-3.13,1.29-4.56,2.18L115.52,109.83z"></path>
	<path fill="#273B91" d="M121.44,105.66c2.84-1.21,5.27-2.12,7.98-2.65c2.71-0.53,5.7-0.68,9.66-0.35l-0.06,0.71   c-3.89-0.32-6.82-0.18-9.47,0.34c-2.65,0.52-5.04,1.41-7.84,2.6L121.44,105.66z"></path>
	<path fill="#273B91" d="M130.62,104.74c2.08-0.45,3.77-0.8,5.67-1.02c1.89-0.22,3.98-0.31,6.85-0.23l-0.02,0.71   c-2.82-0.08-4.88,0.01-6.75,0.23c-1.86,0.22-3.54,0.56-5.6,1.01L130.62,104.74z"></path>
	<path fill="#273B91" d="M125.96,107.38c2.83-0.95,4.97-1.63,7.2-2.1c2.23-0.47,4.54-0.72,7.68-0.82l0.02,0.71   c-3.1,0.1-5.37,0.34-7.56,0.8c-2.19,0.46-4.32,1.13-7.12,2.08L125.96,107.38z"></path>
	<path fill="#273B91" d="M147.82,102.04c3.96-2.89,7.32-5.29,11.78-6.93c4.46-1.64,9.99-2.52,18.27-2.39l-0.01,0.71   c-8.18-0.13-13.63,0.74-18.01,2.35c-4.37,1.61-7.7,3.97-11.61,6.83L147.82,102.04z"></path>
	<path fill="#273B91" d="M185.85,94.11c-3.27,0.43-6.19,0.55-8.99,0.66c-7.41,0.3-14.03,0.58-24.31,6.54l-0.35-0.61   c10.43-6.06,17.13-6.33,24.63-6.64c2.79-0.11,5.68-0.23,8.92-0.66L185.85,94.11z"></path>
	<path fill="#273B91" d="M174.43,97.29c-3.64,0.24-6.8,0.68-9.51,1.3c-2.7,0.62-4.95,1.42-6.79,2.39l-0.33-0.63   c1.89-0.99,4.2-1.82,6.96-2.45c2.74-0.63,5.94-1.08,9.62-1.32L174.43,97.29z"></path>
	<path fill="none" stroke="#FFFFFF" stroke-width="4.7178" stroke-linejoin="round" stroke-miterlimit="22.9256" d="M161.37,27.67   v12.71c5.3,1.88,11.01,2.28,16.13,0.84l0.01-5.19l-2.79-1.84l-3.35,1.45l-1.09-1.21l10.54-6.18l6.44,5.46l4.52-1.75l0.96,1.14   l-8.04,4.69v40.64l1.96,1.86l3.73-1.56l1.18,1.46l-10.6,5.92l-1.81,0.22l-5.38-4.69l-4.29,1.75l-0.84-1.33   c-0.32-0.5,8.57-4.45,8.88-5.17v-5.05c-6.05-2.76-11.65-3.85-16.16-0.84v6.88l1.22-0.59l0.58,1.34l-10.73,7.06   c-2.94-1.78-3.88-2.56-5.49-3.21c-1.47-0.6-4.4-1.62-6.18-1.56c-4.58,0.15-7.24,0.93-10.18,4.32c-1.72,1.98-2.34,5.54-1.94,8.16   c0.67,4.35,2.24,6.1,4.82,7.63c3.08,1.82,5.68,2.3,10.64,2.27l-0.07,1.05c-6.6,0.1-10.46-1.41-13.12-3.23   c-1.22-0.84-3.76-2.63-4.38-7.08c-0.72-5.16,0.63-10.92,6.66-15.31c3.15-2.3,7.21-3.42,11.84-3.42c2.18,0,4.48,0.52,6.54,1.16   c2.06,0.64,3.29,1.09,5.37,2.42l0.96-0.45l0.98-46.29c-3.83,2.13-5.45,3.45-8.99,3.38c-2.68-0.06-4.04-0.5-5.98-1.52   c-0.9-0.47-4.3-1.81-5.63-1.78c-1.65,0.04-3.29,0.22-4.36,1.28c-1.07,1.06-1.61,1.77-1.68,3.01c-0.13,2.37,0.39,4.33,3.45,5.27   l-0.22,0.76c-3.95-0.88-4.38-4.03-4.2-6.16c0.25-3,1.61-7.64,9.72-9.29c1.17-0.24,4.15-0.51,7.39,1.07c1.7,0.83,6.41,2.6,7.8,2.3   c2.05-0.45,2.72-2.37,3.53-2.74L161.37,27.67z M177.34,43.28c-5.85,1.55-10.74,1.28-15.97-1.08v10.79l16.16,0.03V42.59    M177.53,58.24l-16.16-0.08v10.88c4.21-2.55,9.64-1.97,16.16,1V58.24z M145.81,57.44c-1.88-1.26-5.32,0.22-5.33,0.22   c-1.07,0.52-1.41,1.53-1.44,3.4l-1.21-0.15c-0.69-4.4,0.75-6.83,2.16-7.9c0.75-0.56,2.32-1.1,5.88-1.02l0.09-7.21   c0.03-2.14,0.68-3.72,1.95-4.75c1.27-1.02,3.79-2,6.76-2.27l0.59,1.41l-1.79,1.77l-0.43,22.51c-0.05,2.69-1.17,5.63-2.32,6.66   c-1.15,1.04-3.59,2.01-6.67,2.43l0.08-1.35c0.35-0.28,0.8-0.54,1.15-0.82C146.12,66.72,145.32,62.5,145.81,57.44z"></path>
	<path fill="#DBA127" d="M161.37,27.67v12.71c5.3,1.88,11.01,2.28,16.13,0.84l0.01-5.19l-2.79-1.84l-3.35,1.45l-1.09-1.21   l10.54-6.18l6.44,5.46l4.52-1.75l0.96,1.14l-8.04,4.69v40.64l1.96,1.86l3.73-1.56l1.18,1.46l-10.6,5.92l-1.81,0.22l-5.38-4.69   l-4.29,1.75l-0.84-1.33c-0.32-0.5,8.57-4.45,8.88-5.17v-5.05c-6.05-2.76-11.65-3.85-16.16-0.84v6.88l1.22-0.59l0.58,1.34   l-10.73,7.06c-2.94-1.78-3.88-2.56-5.49-3.21c-1.47-0.6-4.4-1.62-6.18-1.56c-4.58,0.15-7.24,0.93-10.18,4.32   c-1.72,1.98-2.34,5.54-1.94,8.16c0.67,4.35,2.24,6.1,4.82,7.63c3.08,1.82,5.68,2.3,10.64,2.27l-0.07,1.05   c-6.6,0.1-10.46-1.41-13.12-3.23c-1.22-0.84-3.76-2.63-4.38-7.08c-0.72-5.16,0.63-10.92,6.66-15.31c3.15-2.3,7.21-3.42,11.84-3.42   c2.18,0,4.48,0.52,6.54,1.16c2.06,0.64,3.29,1.09,5.37,2.42l0.96-0.45l0.98-46.29c-3.83,2.13-5.45,3.45-8.99,3.38   c-2.68-0.06-4.04-0.5-5.98-1.52c-0.9-0.47-4.3-1.81-5.63-1.78c-1.65,0.04-3.29,0.22-4.36,1.28c-1.07,1.06-1.61,1.77-1.68,3.01   c-0.13,2.37,0.39,4.33,3.45,5.28l-0.22,0.76c-3.95-0.88-4.38-4.03-4.2-6.16c0.25-3,1.61-7.64,9.72-9.29   c1.17-0.24,4.15-0.51,7.39,1.07c1.7,0.83,6.41,2.6,7.8,2.3c2.05-0.45,2.72-2.37,3.53-2.74L161.37,27.67z M177.34,43.28   c-5.85,1.55-10.74,1.28-15.97-1.08v10.79l16.16,0.03V42.59 M177.53,58.24l-16.16-0.08v10.88c4.21-2.55,9.64-1.97,16.16,1V58.24z    M145.81,57.44c-1.88-1.26-5.32,0.22-5.33,0.22c-1.07,0.52-1.41,1.53-1.44,3.4l-1.21-0.15c-0.69-4.4,0.75-6.83,2.16-7.9   c0.75-0.56,2.32-1.1,5.88-1.02l0.09-7.21c0.03-2.14,0.68-3.72,1.95-4.75c1.27-1.02,3.79-2,6.76-2.27l0.59,1.41l-1.79,1.77   l-0.43,22.51c-0.05,2.69-1.17,5.63-2.32,6.66c-1.15,1.04-3.59,2.01-6.67,2.43l0.08-1.35c0.35-0.28,0.8-0.54,1.15-0.82   C146.12,66.72,145.32,62.5,145.81,57.44z"></path>
	<path fill="none" stroke="#FFFFFF" stroke-width="4.7237" stroke-linejoin="round" stroke-miterlimit="22.9256" d="M92.38,73.77   c-1.08-0.68-1.91-0.84-2.93-1.16c-1.17-0.36-2.36-0.58-3.57-0.78c-3.99-0.63-7.8-0.38-11.21,0.56c-3.74,1.04-11.42,5.99-12.69,9.96   c-1.14,3.58,1.18,4.48,2.61,5.08c1.71,0.71,4.58,0.74,6.63,0.32c4.74-0.98,7.35-2.24,10.72-4.25   C83.79,82.41,88.96,77.84,92.38,73.77z M110.64,52.6c-8.34-3.25-15.36-5-19.06-8.05c-2.72-2.25-4.38-5.15-4.2-8.06   c0.3-4.75,4.63-8.81,8.47-10.52c2.3-1.03,5.75-1.46,10.53-0.62c2.35,0.42,6.12,1.87,7.97,2.96c1.85,1.09,3.59,2.21,5.81,4.13   c1.61-0.57,3.37-1.18,4.44-1.85c1.09-0.68,1.74-1.12,2.4-1.97l1.28,1.42c-1.47,1.87-3.62,2.51-9.96,5.57   c-1.89,0.91-3.55,2-4.56,2.4c-1.63-3.17-5.8-7.49-7.99-8.85c-0.9-0.55-4.85-2.25-8.84-1.31c-1.47,0.35-3.01,1.39-3.98,2.49   c-1.54,1.73-2.03,4.93-0.61,7.04c3.13,4.64,14.88,8.82,22.28,10.8c3.72-3.95,8.16-7.38,16.3-10.44c1-0.64,1.98,0.37,0.69,1.58   c-4.51,1.26-11.1,4.34-15.64,9.37c4.69,1.44,9.03,4.24,10.76,6.39c2.52,3.13,2.86,6.75,2.13,10.05c-0.83,3.74-2.18,7.85-9.73,11.8   c-5.15,2.7-10.34,4.07-14.36,6.82c-2.27-2.11-4.93-4.16-6.43-5.52c-1.68-1.52-2.54-2.39-4.38-3.37   c-6.17,5.88-8.28,7.81-11.52,10.19c-3.68,2.71-10.75,6.3-16,6.28c-2.48-0.01-4.72-0.8-5.84-2.34c-1.12-1.54-1.15-4.16-0.58-5.93   c2.59-8.07,12.76-12.8,17.2-14.28c5.61-1.88,12.92-1.7,18.64,0.4l0.58,0.29l6.68-7.78c-0.62-0.56-10.37-3.61-11.75-4.33   c-2.15-1.12-7.24-3.32-9.8-6.44c-1.1-1.34-1.79-4.1-1.23-6.59c0.36-1.62,0.86-2.33,2.7-5.23l0.97,0.64   c-0.18,0.4-0.35,2.84-0.05,3.69c0.7,2.05,1.56,3.59,3.95,5.1c2.04,1.29,2.94,1.89,6.89,3.75c2.72,1.28,7.72,2.79,11.42,4.47   c0.2,0.09,0.49,0.16,0.81,0.33C108.93,54.76,109.73,53.71,110.64,52.6z M108.29,57.72c9.2,3.46,11.92,5.98,12.65,10.07   c0.23,1.28,0.25,2.24-0.93,3.59c-0.85,0.96-3.98,3.26-5.54,2.04c0.04-0.18,0.11-0.41,0.21-0.65c0.29-0.71,0.45-1.14,0.49-1.29   c0.39-1.78,0.04-3.53-1.53-5.06c-1.39-1.35-7.29-3.5-9.02-4.02l-6.76,7.75c2.83,1.21,4.86,2.37,7.04,3.89   c2.18,1.52,4.19,2.69,5.96,4.67c3.24-1.09,6.28-2.84,8.24-4.44c5.25-4.27,10.11-14.75-6.11-20.68c-0.21-0.08-0.76-0.37-0.98-0.46   C110.83,54.38,108.64,57.19,108.29,57.72z"></path>
	<path fill="#DBA127" d="M92.38,73.77c-1.08-0.68-1.91-0.84-2.93-1.16c-1.17-0.36-2.36-0.58-3.57-0.77   c-3.99-0.63-7.8-0.38-11.21,0.56c-3.74,1.04-11.43,5.99-12.69,9.96c-1.14,3.58,1.18,4.48,2.61,5.08c1.71,0.71,4.58,0.74,6.63,0.32   c4.74-0.98,7.35-2.24,10.72-4.25C83.79,82.41,88.96,77.84,92.38,73.77 M110.64,52.59c-8.34-3.25-15.36-5-19.06-8.05   c-2.72-2.25-4.38-5.15-4.2-8.06c0.3-4.75,4.63-8.81,8.47-10.52c2.3-1.03,5.75-1.46,10.53-0.62c2.35,0.42,6.12,1.87,7.97,2.96   c1.85,1.09,3.59,2.21,5.81,4.14c1.61-0.57,3.37-1.18,4.44-1.85c1.09-0.68,1.74-1.12,2.4-1.97l1.28,1.42   c-1.47,1.87-3.62,2.5-9.96,5.57c-1.89,0.92-3.55,2-4.56,2.4c-1.63-3.17-5.8-7.5-7.99-8.85c-0.9-0.55-4.85-2.25-8.84-1.31   c-1.47,0.35-3.01,1.39-3.98,2.49c-1.54,1.73-2.03,4.93-0.61,7.04c3.13,4.64,14.88,8.82,22.28,10.8c3.72-3.95,8.16-7.38,16.3-10.44   c1-0.64,1.98,0.37,0.69,1.58c-4.51,1.26-11.1,4.34-15.64,9.37c4.69,1.44,9.03,4.24,10.76,6.39c2.52,3.13,2.86,6.75,2.13,10.05   c-0.83,3.74-2.18,7.85-9.73,11.8c-5.15,2.7-10.34,4.07-14.36,6.82c-2.27-2.11-4.93-4.16-6.43-5.52c-1.68-1.52-2.54-2.39-4.38-3.37   c-6.17,5.88-8.28,7.81-11.52,10.19c-3.68,2.71-10.75,6.3-16,6.28c-2.48-0.01-4.73-0.8-5.84-2.34c-1.12-1.54-1.15-4.16-0.58-5.93   c2.59-8.07,12.76-12.8,17.2-14.28c5.61-1.88,12.92-1.7,18.64,0.4l0.58,0.29l6.68-7.78c-0.62-0.56-10.37-3.61-11.75-4.33   c-2.15-1.12-7.24-3.32-9.8-6.44c-1.1-1.34-1.79-4.1-1.23-6.59c0.36-1.62,0.86-2.33,2.7-5.23l0.97,0.64   c-0.18,0.4-0.35,2.84-0.05,3.69c0.71,2.05,1.56,3.59,3.95,5.1c2.04,1.29,2.94,1.89,6.89,3.76c2.72,1.28,7.72,2.79,11.42,4.47   c0.2,0.09,0.49,0.16,0.81,0.32C108.93,54.76,109.73,53.71,110.64,52.59z M108.29,57.72c9.2,3.46,11.92,5.98,12.65,10.07   c0.23,1.28,0.25,2.24-0.93,3.59c-0.85,0.96-3.98,3.26-5.54,2.04c0.04-0.18,0.11-0.41,0.21-0.65c0.29-0.71,0.45-1.14,0.49-1.29   c0.39-1.78,0.04-3.53-1.53-5.06c-1.39-1.35-7.3-3.49-9.02-4.02l-6.77,7.75c2.83,1.21,4.86,2.37,7.04,3.89   c2.18,1.52,4.19,2.69,5.96,4.67c3.24-1.09,6.28-2.84,8.24-4.44c5.25-4.27,10.11-14.75-6.11-20.68c-0.21-0.08-0.76-0.37-0.98-0.46   C110.83,54.38,108.64,57.19,108.29,57.72z"></path>
</g>
</svg>