<?xml version="1.0" encoding="UTF-8"?> <svg xmlns="http://www.w3.org/2000/svg" version="1.1" viewBox="0 0 60 71"><g transform="translate(-311 -322)"><g transform="matrix(.19 0 0 .19 277 290)"><path d="m338 543c-20-14-46-24-79-32-10-2.2-16-4.1-23-7.5-10-5.2-20-14-27-25-5.4-8.1-10-19-14-30-8.2-26-12-60-12-111-9e-3 -14 0.52-51 0.9-62l0.21-6.4 0.8-0.24c0.44-0.13 2.7-0.7 5.1-1.3 9-2.1 18-5.5 22-8.5 4.6-3.1 7.7-6.9 9.1-11 1-3.1 1.1-8.7 0.18-13-1.1-5-4.5-13-7.8-18-0.73-1.2-1.3-2.4-1.3-2.6s2.1-1.9 4.6-3.6c30-21 63-35 96-40 11-1.5 16-1.9 28-1.9 12 0 17 0.34 28 1.9 33 4.8 66 18 96 40 2.5 1.8 4.6 3.4 4.6 3.6s-0.6 1.4-1.3 2.6c-0.73 1.2-2.1 3.7-3 5.6-7.4 15-7.3 25 0.034 33 1.2 1.2 3.2 2.9 4.3 3.6 4.7 3.2 13 6.5 22 8.6 2.4 0.56 4.7 1.1 5.1 1.3l0.8 0.24 0.2 5.7c0.11 3.2 0.38 17 0.61 31 0.95 59-0.6 91-5.8 119-5.4 29-15 50-28 64-7.4 7.6-15 12-24 16-4.3 1.7-8.7 3-16 4.6-33 7.3-59 18-79 31-2.1 1.5-4.1 2.7-4.3 2.7-0.26 3e-3 -1.9-1-3.7-2.3z" fill="#0073b0" stroke-width=".32"></path><path d="m366 498c0.6-0.32 0.62-0.91 0.62-23v-22l2.2-0.99c8.4-3.8 21-7.8 33-10 1.8-0.38 2.5-0.68 2.6-1.1 0.072-0.3-2.4-18-5.4-40-4-29-5.6-39-6-40-0.25-0.18-6.2-2.8-13-5.7-7-3-13-5.5-13-5.7-0.32-0.24-0.38-4.6-0.32-20l0.082-20 23-0.082c18-0.064 23-0.17 23-0.48 0.14-0.22 0.25-11 0.26-23 4e-3 -18-0.088-23-0.38-23-0.29-0.29-6-0.38-24-0.38h-23l-0.16-44-24-0.082c-19-0.065-24 2e-3 -25 0.32-0.14 0.22-0.26 10-0.26 22l-5e-3 22h-24c-18 0-24 0.092-24 0.38-0.29 0.29-0.38 5.9-0.38 23 3e-3 13 0.12 23 0.26 23 0.2 0.31 5.5 0.42 24 0.48l24 0.082v41l-15 6.8c-10 4.7-15 7-15 7.4-0.14 0.34-2.7 18-5.7 38-4.5 31-5.4 38-5 38 0.23 0.23 2.4 0.93 4.9 1.6 13 3.2 25 7.6 33 12l2.5 1.3v21c0 19 0.056 21 0.5 22 0.45 0.45 3.1 0.5 24 0.5 16 0 24-0.11 24-0.33z" fill="#fff" stroke-width=".32"></path><g fill="#cca847"><g stroke-width=".32"><path d="m346 454-1.3-1.1 2.7-2.2c10-8 23-14 33-17 3.5-0.86 8.9-1.6 11-1.6h2.1l-0.19 3.7-2.2 0.23c-12 1.3-22 4.5-33 11-3.3 2-10 7.1-11 7.8-0.36 0.58-1.3 0.31-2.5-0.76z"></path><path d="m329 453c-12-9.5-25-15-39-16l-3.8-0.38v-3.8l2.4 0.098c10 0.43 23 4.8 34 12 6.1 3.8 13 8.7 13 9.4 0 0.37-2.2 2.1-2.6 2.1-0.096 0-1.8-1.2-3.7-2.7z"></path><path d="m334 446c-3.6-2.7-9.5-6.4-14-8.6-10-5.3-19-7.8-28-8.2-3.2-0.12-5.1-0.32-5.2-0.55-0.26-0.72 7-60 7.4-61 0.47-0.57 6.7-2.9 12-4.4 10-3.1 20-3.1 26-0.056 2.4 1.2 5.3 3.6 5.8 4.7 0.28 0.67 0.35 11 0.29 40-0.073 35-0.14 39-0.56 39-0.26 0.035-1.6-0.8-3-1.9z"></path></g><path d="m343 407v-40l1.3-1.3c1.9-1.9 4.9-3.7 7.8-4.7 2.4-0.8 3-0.86 8.2-0.88 6.8-0.018 9.8 0.54 18 3.4 7.3 2.4 8.2 2.9 8.4 4.2 0.38 2.3 6.9 58 6.9 59v1l-4.9 0.2c-14 0.57-27 6-42 17-1.6 1.2-3.2 2.1-3.4 2.1-0.43 0-0.48-4.5-0.48-40z"></path></g></g></g></svg> 